<svg xmlns="http://www.w3.org/2000/svg" width="174" height="36" viewBox="0 0 174 36" fill="none">
  <path fill-rule="evenodd" clip-rule="evenodd" d="M112.533 6.15525C114.231 6.15525 115.608 4.77647 115.608 3.07836C115.608 1.37857 114.231 0 112.533 0C110.832 0 109.456 1.37857 109.456 3.07836C109.456 4.77647 110.832 6.15525 112.533 6.15525ZM0 0.540231V5.61439H8.67815V28.0217H14.0632V5.61439H22.7391V0.540231H0ZM35.0499 28.0218H30.1864V25.8567C29.3495 27.3397 27.4505 28.4794 24.941 28.4794C19.6213 28.4794 15.819 24.3008 15.819 18.6361C15.819 13.163 19.5062 8.87141 24.7896 8.87141C28.0194 8.87141 29.541 10.1985 30.0724 11.1857V9.32477H35.0499V28.0218ZM25.5497 23.9561C28.1339 23.9561 30.149 21.9775 30.149 18.5993C30.149 15.2529 28.1339 13.392 25.5497 13.392C22.9646 13.392 20.9137 15.2899 20.9137 18.6361C20.9137 21.9775 22.8898 23.9561 25.5497 23.9561ZM37.2344 28.0218H42.2895V17.2697C42.2895 15.1031 43.5821 13.392 45.7855 13.392C48.2178 13.392 49.2445 15.0239 49.2445 17.1151V28.0218H54.2968V16.2409C54.2968 12.1386 52.1714 8.83023 47.5336 8.83023C45.5208 8.83023 43.2762 9.70649 42.1378 11.6439V9.32477H37.2344V28.0218ZM60.6039 27.8337C60.9442 29.8826 62.5787 31.3663 64.9739 31.3663C68.1676 31.3663 69.9543 29.7719 69.9543 26.1627V24.7913C69.194 26.0095 67.4436 27.1866 64.7457 27.1866C59.7665 27.1866 56.0438 23.3507 56.0438 18.1041C56.0438 13.1639 59.6167 8.98475 64.7457 8.98475C67.7102 8.98475 69.4205 10.2751 70.0674 11.528V9.32466H74.9325V26.0095C74.9325 31.1381 72.1569 35.8137 65.1285 35.8137C59.9972 35.8137 56.5751 32.6221 56.0438 29.0476L60.6039 27.8337ZM70.0293 18.1041C70.0293 15.2156 68.0531 13.3919 65.619 13.3919C63.1129 13.3919 61.1352 15.2156 61.1352 18.1041C61.1352 21.0318 62.9982 22.8553 65.619 22.8553C68.2043 22.8553 70.0293 20.9944 70.0293 18.1041ZM86.3328 28.595C90.9313 28.595 93.8954 25.8941 94.8443 22.6635L90.6275 21.408C90.0214 23.0824 88.7258 24.2588 86.3727 24.2588C83.8634 24.2588 81.7731 22.4746 81.6588 20.0044H95.038C95.038 19.985 95.0425 19.9239 95.0494 19.832L95.0494 19.8316C95.0701 19.5521 95.112 18.9885 95.112 18.4464C95.112 12.4408 91.6536 8.75674 85.8756 8.75674C81.0887 8.75674 76.6796 12.6309 76.6796 18.5994C76.6796 24.9074 81.2025 28.595 86.3328 28.595ZM85.954 12.8599C88.8401 12.8599 90.058 14.6845 90.1351 16.5454H81.7731C81.8866 14.838 83.3319 12.8599 85.954 12.8599ZM110.005 28.0218H115.059V9.32473H110.005V28.0218ZM117.242 28.0218H122.298V17.2697C122.298 15.1031 123.591 13.392 125.794 13.392C128.227 13.392 129.255 15.0239 129.255 17.1151V28.0218H134.307V16.2409C134.307 12.1386 132.178 8.83023 127.542 8.83023C125.527 8.83023 123.286 9.70649 122.146 11.6439V9.32477H117.242V28.0218ZM154.219 22.6635C153.27 25.8941 150.306 28.595 145.706 28.595C140.575 28.595 136.054 24.9074 136.054 18.5994C136.054 12.6309 140.463 8.75674 145.251 8.75674C151.028 8.75674 154.484 12.4408 154.484 18.4464C154.484 18.9871 154.442 19.5491 154.421 19.8293L154.421 19.8298L154.421 19.8312L154.421 19.8316C154.414 19.9237 154.409 19.985 154.409 20.0044H141.031C141.146 22.4746 143.236 24.2588 145.744 24.2588C148.099 24.2588 149.395 23.0824 150 21.408L154.219 22.6635ZM149.508 16.5454C149.429 14.6845 148.216 12.8599 145.326 12.8599C142.705 12.8599 141.262 14.838 141.146 16.5454H149.508ZM108.257 14.2105C107.687 14.0971 107.193 14.0587 106.738 14.0587C104.154 14.0587 101.913 15.3126 101.913 19.3408V28.0211H96.8577V9.32567H101.759V12.232C102.9 9.76181 105.483 9.04395 107.08 9.04395C107.497 9.04395 107.878 9.08155 108.257 9.11958V14.2105ZM173.43 2.68288C173.712 2.24527 173.727 1.6854 173.494 1.25725C173.259 0.829097 172.779 0.539811 172.26 0.540231L154.649 0.539811C154.197 0.539391 153.81 0.861239 153.726 1.30473C153.643 1.74905 153.881 2.20893 154.308 2.35326C156.434 3.07069 159.922 4.58099 161.641 7.73351C163.365 10.882 162.751 14.6335 162.207 16.81C162.098 17.2484 162.356 17.6961 162.775 17.8669C163.194 18.036 163.673 17.8831 163.917 17.5035L173.43 2.68288Z" fill="#EA7024"/>
</svg>